<svg width="45" height="45" viewBox="0 0 45 45" fill="none" xmlns="http://www.w3.org/2000/svg">
<circle cx="22.5" cy="22.5" r="22.25" stroke="url(#paint0_linear_490_152)" stroke-width="0.5"/>
<path d="M22.5 6.90909C25.5741 6.90909 28.5223 8.13027 30.696 10.304C32.8697 12.4777 34.0909 15.4259 34.0909 18.5C34.0909 24.0083 30.3819 29.2666 22.5707 34.2369C22.5495 34.2503 22.525 34.2573 22.5 34.2573C22.4748 34.2573 22.4502 34.2502 22.4289 34.2367L21.9417 35.0042L22.4297 34.2372C14.6182 29.2668 10.9091 24.0084 10.9091 18.5C10.9091 15.4259 12.1303 12.4777 14.304 10.304C16.4777 8.13027 19.4259 6.90909 22.5 6.90909Z" stroke="#34AAFC" stroke-width="1.81818"/>
<path fill-rule="evenodd" clip-rule="evenodd" d="M27.9874 15.0226C27.9791 14.5772 27.5356 14.3494 27.0862 14.3783C26.8342 14.3946 26.1862 14.5463 25.2388 14.168C24.4404 13.8492 24.1938 13.3085 23.3582 13.0506C23.1404 12.9831 22.7711 12.9831 22.5531 13.0506C21.7177 13.3085 21.4709 13.8492 20.6725 14.168C19.7254 14.5463 19.078 14.3789 18.8253 14.3783C18.3515 14.3773 18.0207 14.6571 18.0209 15.1185C18.0209 15.1185 17.4654 20.5184 22.0843 22.7728C22.1863 22.8226 22.5647 22.9994 22.9515 23H22.96C23.3467 22.9992 23.7252 22.8226 23.827 22.7728C28.4461 20.5184 27.9874 15.0226 27.9874 15.0226Z" fill="#34AAFC"/>
<defs>
<linearGradient id="paint0_linear_490_152" x1="9.24151" y1="8.47492" x2="38.5987" y2="21.3366" gradientUnits="userSpaceOnUse">
<stop stop-color="#34AAFC"/>
<stop offset="1" stop-color="#34AAFC"/>
</linearGradient>
</defs>
</svg>
