<svg width="45" height="45" viewBox="0 0 45 45" fill="none" xmlns="http://www.w3.org/2000/svg">
<circle cx="22.5" cy="22.5" r="22.5" fill="#34AAFC"/>
<path d="M35.2179 16.0962L35.2174 16.071C35.2123 15.8101 35.089 15.6051 34.8289 15.4429C34.5491 15.2684 34.1308 15.1659 33.6705 15.1943L35.2179 16.0962ZM35.2179 16.0962L35.22 16.1207M35.2179 16.0962L35.22 16.1207M35.22 16.1207L35.22 16.1209M35.22 16.1207L35.22 16.1209M35.22 16.1209L35.22 16.1212M35.22 16.1209L35.22 16.1212M35.22 16.1212L35.2201 16.1214M35.22 16.1212L35.2201 16.1214M35.2201 16.1214L35.2204 16.126L35.2223 16.1501C35.2239 16.1726 35.2262 16.2077 35.2289 16.2548C35.2343 16.349 35.2409 16.491 35.2453 16.6756C35.254 17.045 35.2538 17.5839 35.2171 18.2501C35.1436 19.5842 34.9241 21.4192 34.3422 23.4214C33.1801 27.4198 30.5867 32.0522 24.8316 34.753L24.8312 34.7532C24.5766 34.8729 23.7225 35.2481 22.8954 35.25C22.8951 35.25 22.8948 35.25 22.8945 35.25L22.8751 35.25C22.0476 35.2488 21.194 34.8732 20.9377 34.753C15.1829 32.0521 12.6545 27.4806 11.5556 23.5488C11.005 21.5786 10.8163 19.7753 10.7657 18.4648C10.7405 17.8104 10.7497 17.2814 10.765 16.919C10.7727 16.7379 10.7818 16.5986 10.7888 16.5064C10.7924 16.4603 10.7953 16.4259 10.7974 16.404L10.7996 16.3805L10.8 16.3761L10.8001 16.3759L10.8001 16.3756L10.8001 16.3754L10.8043 16.3362L10.8043 16.296C10.8041 15.9194 10.9372 15.67 11.1282 15.505C11.331 15.3298 11.6657 15.1948 12.1442 15.1958L35.2201 16.1214ZM23.7179 11.8455L23.7173 11.8453C23.5274 11.7887 23.2241 11.75 22.8849 11.75C22.5458 11.75 22.2422 11.7887 22.0519 11.8453L22.0516 11.8454C21.0979 12.1285 20.4819 12.5606 19.807 13.0663C19.7606 13.1011 19.7139 13.1363 19.6667 13.1718C19.0226 13.6567 18.2897 14.2084 17.2175 14.62L23.7179 11.8455ZM23.7179 11.8455C24.6718 12.1285 25.2878 12.5606 25.9626 13.0663C26.009 13.1011 26.0558 13.1363 26.1031 13.1719C26.747 13.6567 27.4799 14.2085 28.5521 14.6201M23.7179 11.8455L28.5521 14.6201M28.5521 14.6201C30.8572 15.5052 32.5775 15.3128 33.3753 15.2235M28.5521 14.6201L33.3753 15.2235M33.3753 15.2235C33.4947 15.2102 33.5934 15.1991 33.6704 15.1943L33.3753 15.2235ZM12.5029 15.2228C12.3476 15.2077 12.2271 15.196 12.1444 15.1958L12.5029 15.2228ZM12.5029 15.2228C13.2998 15.3005 15.0115 15.4673 17.2174 14.6201L12.5029 15.2228Z" stroke="white" stroke-width="1.5"/>
<path fill-rule="evenodd" clip-rule="evenodd" d="M26.8629 24.7907C26.2511 25.6189 25.3905 26.4427 24.5036 27.0243C23.7849 27.4958 23.0591 27.899 22.4145 28C21.7565 27.8808 20.9866 27.4338 20.2437 26.8984C19.4605 26.3338 18.7055 25.5605 18.137 24.7911C16.5843 22.6898 16.6272 20.5095 18.2332 19.4434C19.4018 18.6669 21.0765 18.9565 22.5002 19.952C23.9239 18.9569 25.5982 18.6669 26.7672 19.4434C28.3728 20.5091 28.4157 22.6894 26.8629 24.7907Z" fill="white"/>
</svg>
