<svg width="151" height="141" viewBox="0 0 151 141" fill="none" xmlns="http://www.w3.org/2000/svg">
<g clip-path="url(#clip0_1_54)">
<path d="M77.3588 125.636C108.649 125.636 134.015 100.648 134.015 69.8234C134.015 38.9989 108.649 14.0107 77.3588 14.0107C46.0685 14.0107 20.7026 38.9989 20.7026 69.8234C20.7026 100.648 46.0685 125.636 77.3588 125.636Z" fill="#33DDEC"/>
<path d="M134.292 70.8229C133.731 101.753 107.736 126.462 76.3392 125.914C44.9422 125.358 19.8564 99.7533 20.4182 68.8234C20.98 37.8935 46.9812 13.1774 78.3713 13.7328C109.768 14.2813 134.854 39.893 134.292 70.8229ZM21.0008 68.8304C20.4459 99.4409 45.2751 124.789 76.3462 125.337C107.417 125.886 133.155 101.426 133.71 70.809C134.265 40.1916 109.435 14.8506 78.3644 14.3021C47.2864 13.7606 21.5556 38.2198 21.0008 68.8304Z" fill="#33DDEC"/>
<path d="M79.0858 14.0381C78.2327 15.5933 77.0606 16.8013 75.4377 17.2387C71.6856 18.2454 68.6548 16.8568 66.8654 14.9754C53.5908 17.44 41.9184 24.4869 33.6443 34.4011C36.3769 33.9568 39.4701 34.1581 42.3206 35.9563C42.3206 35.9563 37.223 36.4423 37.438 40.3163C37.6599 44.1904 42.0917 40.3997 44.2209 43.4475C46.3501 46.4954 50.0537 42.545 47.4806 40.3511C44.9006 38.1571 47.869 35.0537 50.1716 36.5256C52.4742 37.9975 52.8557 40.8718 51.4963 43.8571C50.13 46.8425 55.2345 46.2177 56.4968 48.96C57.7591 51.7024 56.3997 54.4031 56.3997 54.4031L60.3599 51.4178C61.3794 50.6471 62.8289 50.7582 63.7167 51.6747L64.7015 52.6883C64.7015 52.6883 62.3088 53.2923 62.1354 55.0766C61.955 56.8678 66.1164 56.2221 66.2135 58.659C66.3175 61.0959 69.9448 61.45 70.2985 58.1592C70.6522 54.8683 72.4762 54.4726 72.4762 54.4726C72.4762 54.4726 71.9561 51.1678 68.6062 51.1053C65.2633 51.0498 66.2689 47.627 66.2689 47.627C66.2689 47.627 63.4393 47.0716 64.438 44.2251C65.4367 41.3786 59.8952 38.1988 66.7752 35.8105C73.6553 33.4222 71.1654 30.4438 71.1654 30.4438L67.8364 29.5273C67.8364 29.5273 73.0241 28.111 73.0103 24.959C72.9964 21.807 78.7043 19.9741 79.918 25.077C81.1317 30.1869 78.1287 31.7073 78.1287 31.7073C78.1287 31.7073 81.9085 31.4852 81.8669 33.6374C81.8253 35.7897 78.7459 37.0949 78.7459 37.0949C78.7459 37.0949 79.1066 41.33 77.0606 41.7257C75.0146 42.1214 75.2782 39.8303 75.2782 39.8303C75.2782 39.8303 71.644 39.6221 72.5456 42.1492C73.4472 44.6764 72.4069 49.7446 72.4069 49.7446C72.4069 49.7446 75.7914 51.5983 75.2296 54.667C74.6679 57.7357 73.5998 61.0126 77.56 62.9496C81.5201 64.8797 81.2427 68.247 81.2427 68.247L85.2098 72.6417C85.2098 72.6417 83.906 75.1966 86.0213 76.0922C88.1366 76.9879 88.5874 73.7456 94.0803 75.759C99.5733 77.7654 101.328 77.0295 102.126 75.995C102.126 75.995 106.564 77.4114 108.499 71.996C108.499 71.996 112.335 69.1009 109.997 64.0952C109.997 64.0952 112.543 61.2765 110.92 57.9995C109.297 54.7225 111.391 51.6052 113.229 51.5427C113.229 51.5427 112.515 48.1894 115.227 48.3283C117.939 48.474 117.307 51.4247 117.307 51.4247C117.307 51.4247 121.164 47.3563 125.575 50.1264C125.575 50.1264 125.193 55.2918 128.203 54.9655C129.542 54.8197 131.074 55.4307 132.371 56.1597C126.31 32.5127 104.934 14.781 79.0858 14.0381Z" fill="#34AAFC"/>
<path d="M132.801 56.7221L132.212 56.3888C130.63 55.5071 129.292 55.1183 128.217 55.2364C127.503 55.3127 126.906 55.1253 126.428 54.674C125.207 53.5215 125.228 50.9735 125.255 50.2723C121.163 47.8423 117.647 51.4595 117.502 51.6122L116.794 52.3551L117.009 51.3554C117.009 51.3415 117.273 50.0501 116.655 49.2517C116.35 48.856 115.858 48.6408 115.206 48.606C114.609 48.5713 114.172 48.7241 113.874 49.0573C113.174 49.8557 113.5 51.4595 113.507 51.4734L113.576 51.8066L113.229 51.8205C112.536 51.8414 111.78 52.3898 111.26 53.2438C110.434 54.5907 110.407 56.3264 111.169 57.8676C112.647 60.8461 110.823 63.4913 110.323 64.1369C112.397 68.8163 109.248 71.7323 108.728 72.1697C106.939 77.0365 103.124 76.5228 102.216 76.3214C100.96 77.7447 98.3942 77.6544 93.9624 76.0298C90.7374 74.8496 89.3572 75.523 88.2545 76.0715C87.5262 76.4256 86.8466 76.7658 85.8895 76.3631C85.2722 76.0993 84.8561 75.6827 84.648 75.1273C84.3012 74.19 84.6758 73.1139 84.8491 72.6973L80.9236 68.3512L80.9306 68.2262C80.9375 68.1012 81.1386 65.0256 77.4073 63.2066C73.5997 61.346 74.217 58.2078 74.7649 55.4307C74.8204 55.16 74.8689 54.8892 74.9244 54.6185C75.4446 51.7858 72.282 50.0154 72.2473 49.9946L72.0601 49.8904L72.1017 49.6822C72.1086 49.6336 73.1143 44.6626 72.2473 42.2396C71.9907 41.5245 72.0392 40.9274 72.393 40.4622C73.1767 39.4347 75.181 39.5388 75.2712 39.5458L75.5764 39.5666L75.5417 39.8651C75.5417 39.8721 75.4446 40.8302 75.9301 41.2676C76.1659 41.4759 76.5196 41.5383 76.9843 41.4481C78.4546 41.1634 78.524 38.2267 78.4338 37.1228L78.413 36.9145L78.6072 36.8312C78.6349 36.8173 81.5132 35.5676 81.5478 33.6306C81.5548 33.2626 81.4299 32.971 81.1733 32.728C80.2717 31.881 78.1356 31.9921 78.1148 31.9921L76.7415 32.0754L77.9691 31.4575C78.0801 31.402 80.7503 29.9509 79.6059 25.1466C79.1204 23.0984 77.7957 21.9945 76.0757 22.1959C74.6886 22.3556 73.246 23.4525 73.2738 24.9591C73.2738 24.9869 73.2738 25.0077 73.2738 25.0355C73.2322 27.5071 70.3192 28.9303 68.7934 29.5066L71.3041 30.2009L71.3596 30.2703C71.3942 30.305 72.1225 31.2006 71.7688 32.4295C71.3665 33.8666 69.702 35.0955 66.8376 36.0883C65.0829 36.6993 64.0495 37.3866 63.682 38.1989C63.2866 39.0806 63.7028 40.0526 64.1466 41.0871C64.5974 42.1424 65.0621 43.2324 64.6807 44.3224C64.4032 45.1069 64.4171 45.7734 64.7223 46.2941C65.2078 47.1272 66.2828 47.3494 66.2897 47.3494L66.6018 47.4119L66.5116 47.7104C66.5047 47.7243 66.0886 49.1892 66.7683 50.0918C67.122 50.5639 67.7323 50.8069 68.5784 50.8208C72.1294 50.8833 72.7189 54.3893 72.7259 54.4241L72.7675 54.6879L72.5039 54.7434C72.4415 54.7573 70.8741 55.1669 70.555 58.1801C70.3539 60.0616 69.1402 60.8669 68.0236 60.8322C67.011 60.7975 65.9499 60.0477 65.8944 58.6591C65.8458 57.5552 64.8263 57.1942 63.7444 56.8124C62.7457 56.4583 61.7192 56.0973 61.8163 55.035C61.9619 53.5632 63.3907 52.8272 64.1466 52.5426L63.4739 51.8552C62.6832 51.0429 61.4071 50.9457 60.5055 51.6331L55.5605 55.3683L56.1084 54.2713C56.1222 54.2435 57.3845 51.6539 56.2055 49.0712C55.6992 47.9673 54.4993 47.4535 53.3342 46.9537C52.3216 46.5232 51.3645 46.1136 51.0524 45.3152C50.8721 44.8639 50.9206 44.3432 51.205 43.7322C52.5574 40.7746 52.0927 38.1017 49.9913 36.7548C48.9301 36.0744 47.7441 36.5187 47.1616 37.2824C46.6206 37.9906 46.468 39.1084 47.654 40.1151C48.5001 40.8302 48.8192 41.816 48.5348 42.8158C48.2435 43.8225 47.3696 44.6417 46.4056 44.8014C45.8716 44.8917 44.8451 44.85 43.9712 43.5934C43.0557 42.2812 41.6756 42.3645 40.337 42.4478C39.3591 42.5103 38.4297 42.5659 37.8056 42.0243C37.4033 41.6703 37.1814 41.1148 37.1397 40.3234C36.9594 37.1991 39.9972 36.1369 41.4883 35.8036C39.2204 34.5887 36.5988 34.2068 33.6789 34.6789L32.916 34.8039L33.4084 34.2138C41.8975 24.0565 53.7503 17.1208 66.8029 14.6977L66.9625 14.67L67.0734 14.7811C68.0791 15.8363 70.9088 18.1622 75.3614 16.9611C76.7623 16.5862 77.9275 15.5586 78.8361 13.8993L78.9193 13.7466L79.0996 13.7535C104.435 14.4825 126.455 31.881 132.642 56.0764L132.801 56.7221ZM125.838 50.4736C125.824 51.2859 125.887 53.3618 126.837 54.2574C127.19 54.5907 127.62 54.7226 128.154 54.6601C129.209 54.5421 130.471 54.8545 131.907 55.5765C125.574 32.0199 104.033 15.1212 79.2522 14.3298C78.2812 16.0377 77.0189 17.1069 75.507 17.5165C72.2612 18.3913 69.0015 17.5581 66.7544 15.2879C54.1456 17.6692 42.6673 24.2995 34.3378 34.0124C37.3894 33.6583 40.122 34.2346 42.4662 35.7134L43.1736 36.1577L42.3344 36.241C42.1403 36.2619 37.5212 36.7479 37.7154 40.2956C37.7501 40.9274 37.9027 41.3578 38.187 41.6008C38.6309 41.9896 39.4007 41.941 40.2954 41.8855C41.6548 41.8022 43.3401 41.698 44.4428 43.274C44.963 44.0238 45.608 44.3571 46.3016 44.2391C47.0506 44.1141 47.7372 43.4684 47.9661 42.67C48.0979 42.2118 48.1811 41.337 47.2656 40.5594C45.7745 39.2889 46.0241 37.817 46.6899 36.9492C47.432 35.9772 48.9509 35.4149 50.3033 36.2827C52.6614 37.7893 53.2093 40.7399 51.7321 43.9752C51.5171 44.4404 51.4755 44.8153 51.5934 45.1208C51.8222 45.697 52.6684 46.0581 53.563 46.4399C54.7698 46.9537 56.1292 47.5369 56.7326 48.849C57.5856 50.7028 57.3013 52.5148 56.9892 53.584L60.1518 51.1957C61.2892 50.3348 62.8982 50.4598 63.897 51.4803L65.2286 52.8481L64.75 52.973C64.7292 52.98 62.5584 53.5493 62.3989 55.1183C62.3434 55.7015 62.9468 55.9445 63.9455 56.2986C65.0482 56.6874 66.4215 57.1734 66.4839 58.6591C66.5255 59.7422 67.33 60.256 68.0513 60.2837C68.835 60.3115 69.813 59.763 69.9863 58.1454C70.2776 55.4238 71.5468 54.556 72.1155 54.306C71.9352 53.5909 71.1723 51.4595 68.5784 51.4109C67.5381 51.3901 66.7821 51.0707 66.3105 50.4459C65.6586 49.578 65.7903 48.3839 65.9013 47.8493C65.4713 47.7104 64.6737 47.3633 64.2299 46.5927C63.8415 45.9262 63.8068 45.1 64.1397 44.1488C64.4518 43.2671 64.0426 42.3229 63.6195 41.3231C63.1479 40.2262 62.6624 39.0876 63.1618 37.9837C63.5987 37.0186 64.7362 36.2272 66.6573 35.5606C69.9933 34.4012 70.9781 33.1446 71.2209 32.2906C71.4428 31.513 71.103 30.909 70.9712 30.7146L66.7336 29.5482L67.7392 29.2705C67.7878 29.2566 72.6496 27.8959 72.6981 25.0424C72.6981 25.0008 72.6981 24.9591 72.6981 24.9174C72.7328 23.1123 74.3973 21.8418 76.0133 21.6544C77.5946 21.4738 79.5157 22.2653 80.1815 25.0424C81.0624 28.7359 79.8209 30.6383 78.954 31.4644C79.7515 31.513 80.9167 31.7074 81.5964 32.3462C81.9709 32.7002 82.1582 33.1446 82.1512 33.6722C82.1165 35.6787 79.7446 36.9631 79.0441 37.3033C79.0927 38.1919 79.1343 41.6425 77.116 42.0382C76.4572 42.1632 75.9301 42.0521 75.5556 41.7119C75.0701 41.2676 74.9799 40.5525 74.973 40.1429C74.3557 40.1567 73.3015 40.2887 72.8784 40.8371C72.6426 41.1426 72.6218 41.5453 72.816 42.0799C73.6413 44.3918 72.9131 48.6408 72.7259 49.6266C73.4541 50.0779 76.0341 51.8969 75.507 54.7434C75.4585 55.0142 75.403 55.2919 75.3475 55.5627C74.7926 58.3814 74.2655 61.0474 77.6778 62.7137C81.3259 64.491 81.527 67.5042 81.5201 68.1568L85.5427 72.6071L85.4525 72.7806C85.4456 72.7945 84.8422 73.9956 85.1959 74.9398C85.3485 75.3494 85.6467 75.641 86.1183 75.8424C86.8188 76.1409 87.2904 75.9118 87.9909 75.5647C89.1353 75.0023 90.6958 74.2317 94.1566 75.5022C99.7327 77.5434 101.231 76.6686 101.869 75.8354L101.994 75.6758L102.188 75.7382C102.361 75.7938 106.384 76.9949 108.201 71.9197L108.229 71.8434L108.298 71.7948C108.451 71.6837 111.918 68.9691 109.713 64.2411L109.637 64.0745L109.762 63.9356C109.859 63.8245 112.154 61.2141 110.642 58.1523C109.789 56.4305 109.831 54.5004 110.753 52.98C111.301 52.0844 112.092 51.4734 112.876 51.3207C112.799 50.7444 112.744 49.5017 113.423 48.7241C113.84 48.245 114.443 48.0298 115.227 48.0715C116.059 48.1131 116.697 48.4116 117.113 48.9462C117.55 49.5086 117.647 50.2168 117.647 50.7513C118.916 49.7238 122.155 47.6827 125.713 49.9113L125.859 50.0015L125.845 50.1751C125.852 50.1404 125.838 50.2654 125.838 50.4736Z" fill="#34AAFC"/>
<path d="M105.011 103.461C105.58 109.397 96.82 111.153 96.82 111.153C96.82 111.153 96.3553 115.257 91.7154 114.694C87.0687 114.132 84.1904 117.811 84.1904 117.811C84.1904 117.811 76.3394 117.485 74.6471 119.839C72.9549 122.199 69.182 121.942 69.182 121.942C69.182 121.942 65.5061 121.116 68.3774 122.977C69.5773 123.754 69.9102 124.518 69.8963 125.143C72.0325 125.421 74.2033 125.587 76.4088 125.629C88.1437 125.837 99.1087 122.512 108.257 116.652C107.674 115.215 108.638 113.354 111.44 112.084C117.113 109.508 114.936 106.509 114.936 106.509C114.936 106.509 110.67 106.245 111.787 103.489C112.903 100.739 111.357 100.517 111.357 100.517C109.755 104.12 105.011 103.461 105.011 103.461Z" fill="#34AAFC"/>
<path d="M115.65 107.967C115.643 108.196 115.615 108.439 115.546 108.696C115.171 110.084 113.833 111.313 111.572 112.341C108.811 113.597 108.055 115.354 108.534 116.548L108.624 116.763L108.423 116.888C98.8936 122.991 87.8245 126.115 76.4087 125.914C74.2517 125.879 72.0462 125.712 69.8616 125.428L69.6049 125.393L69.6119 125.136C69.6257 124.47 69.1541 123.824 68.2248 123.22C67.2053 122.56 66.8723 122.165 67.0319 121.797C67.0943 121.651 67.2815 121.22 69.2512 121.665C69.2512 121.658 72.8369 121.873 74.4112 119.679C76.0619 117.374 82.9281 117.492 84.0585 117.52C84.6134 116.874 87.4153 113.889 91.75 114.41C93.1302 114.576 94.2468 114.333 95.086 113.681C96.3344 112.709 96.5355 111.133 96.5355 111.119L96.5563 110.91L96.7644 110.869C96.8476 110.855 105.267 109.098 104.719 103.489L104.685 103.128L105.052 103.176C105.101 103.183 109.595 103.759 111.1 100.399L111.19 100.198L111.405 100.226C111.606 100.253 112.016 100.413 112.265 100.843C112.626 101.454 112.557 102.378 112.064 103.586C111.835 104.155 111.842 104.62 112.092 105.009C112.654 105.884 114.353 106.175 114.956 106.21L115.095 106.217L115.178 106.328C115.206 106.37 115.664 107.016 115.65 107.967ZM107.82 115.763C107.84 114.514 108.749 112.986 111.329 111.813C113.389 110.876 114.651 109.751 114.977 108.557C115.213 107.689 114.915 107.022 114.776 106.773C114.221 106.717 112.328 106.446 111.606 105.321C111.253 104.773 111.232 104.12 111.53 103.378C112.05 102.1 111.946 101.461 111.773 101.149C111.697 101.017 111.599 100.934 111.516 100.878C110.018 103.801 106.46 103.843 105.323 103.773C105.517 109.147 98.3665 111.077 97.0765 111.389C96.9794 111.896 96.6188 113.215 95.4466 114.125C94.4826 114.875 93.2134 115.159 91.6737 114.979C87.2558 114.444 84.44 117.95 84.4123 117.985L84.3221 118.103L84.1695 118.096C84.0932 118.096 76.4572 117.798 74.8759 120.005C73.1074 122.47 69.3136 122.241 69.1541 122.227C68.5369 122.088 67.9196 122.026 67.6353 122.047C67.7393 122.158 67.9751 122.373 68.5299 122.734C69.5356 123.386 70.0835 124.109 70.1667 124.886C72.2474 125.15 74.3488 125.303 76.4017 125.337C87.6234 125.532 98.5052 122.491 107.896 116.527C107.847 116.291 107.813 116.034 107.82 115.763Z" fill="#34AAFC"/>
<path d="M20.7096 69.5244C20.6055 88.7141 30.3638 105.745 45.3514 115.874C45.1919 115.68 42.8269 112.736 49.27 114.326C49.27 114.326 48.3406 111.25 44.9006 108.897C41.4606 106.543 39.9556 103.842 42.0085 103.113C42.0085 103.113 38.735 101.718 40.233 99.2602L42.2721 99.2949C42.2721 99.2949 43.8672 97.0315 41.3774 95.0737C41.3774 95.0737 39.8863 97.0524 38.1593 95.879C36.4324 94.6988 36.2174 90.6859 39.2274 90.547C42.2374 90.4082 42.2929 92.5118 42.2929 92.5118C42.2929 92.5118 44.9353 91.3177 42.7645 87.8394C40.5937 84.361 37.015 86.9715 37.015 86.9715C37.015 86.9715 33.0756 87.3811 31.6954 83.153L31.099 84.5902C30.8909 85.0831 30.1904 85.1039 29.9615 84.6179C29.5662 83.7917 28.9351 82.9517 28.0127 83.0905C26.2649 83.3474 27.2844 85.944 29.5662 88.4711C31.848 90.9983 29.9546 93.7337 29.9546 93.7337C29.9546 93.7337 29.7396 91.4565 26.6394 89.3737C23.5393 87.2978 23.2965 81.0008 26.7781 81.8269L25.7864 79.3553C25.6338 78.9804 26.0985 78.6611 26.4036 78.9249L28.9212 81.098C28.9212 81.098 31.3625 79.9941 27.6451 76.488C23.9276 72.9819 24.0317 70.788 24.5033 69.8438C24.5033 69.8438 23.0122 69.816 22.6723 72.8708C22.492 74.4121 21.5765 72.1488 20.7096 69.5244Z" fill="#34AAFC"/>
<path d="M49.6931 114.729L49.2006 114.604C45.9617 113.805 45.2821 114.229 45.1433 114.451C44.9561 114.749 45.2959 115.353 45.5803 115.687L46.8772 117.242L45.1919 116.103C29.5801 105.55 20.3212 88.1379 20.4252 69.5175L20.4321 67.7471L20.987 69.4342C21.7499 71.7391 22.1729 72.5931 22.3741 72.9125C22.381 72.8916 22.381 72.8639 22.381 72.8361C22.7555 69.5661 24.4408 69.5522 24.5102 69.5591L24.9679 69.5661L24.7668 69.9687C24.4963 70.5103 23.9207 72.5862 27.8531 76.2866C29.4413 77.7863 30.1557 79.0707 29.9823 80.1121C29.8297 81.0007 29.0807 81.3479 29.053 81.3618L28.8796 81.4381L26.2094 79.147C26.1609 79.1054 26.1192 79.1193 26.0846 79.1401C26.0568 79.1609 26.0221 79.1956 26.0499 79.2581L27.2428 82.2435L26.7018 82.1116C25.8002 81.8964 25.1621 82.1949 24.8015 82.9933C24.0525 84.6596 24.8292 87.8185 26.7989 89.1376C28.9073 90.547 29.7257 92.0536 30.0447 92.9353C30.4331 92.0328 30.8285 90.304 29.3443 88.6586C27.867 87.027 26.4591 84.8331 26.9238 83.5765C27.0347 83.278 27.3052 82.9031 27.971 82.8059C28.5883 82.7156 29.483 82.9378 30.2251 84.4929C30.3083 84.6735 30.4817 84.6873 30.5372 84.6804C30.5857 84.6804 30.7591 84.6596 30.8354 84.4791L31.7301 82.3129L31.9728 83.0627C33.1727 86.7493 36.3699 86.7216 36.9109 86.6938C37.2646 86.4577 38.8251 85.4927 40.4896 85.8121C41.5091 86.0065 42.3553 86.6382 43.0142 87.6935C43.8325 89.0057 44.0961 90.1721 43.7909 91.158C43.4372 92.2966 42.4593 92.7548 42.4177 92.7756L42.0154 92.9561L42.0016 92.5257C42.0016 92.5049 41.9738 91.9008 41.4398 91.4287C40.9612 90.9913 40.2191 90.7969 39.2343 90.8386C37.979 90.8941 37.4935 91.6717 37.3062 92.3105C36.9594 93.5046 37.4241 95.032 38.3257 95.6499C39.7961 96.6497 41.0861 94.9834 41.1416 94.914L41.3219 94.6779L41.5577 94.8585C44.2279 96.9552 42.5287 99.4407 42.5079 99.4684L42.4177 99.5934L40.3995 99.5587C40.122 100.072 40.0596 100.572 40.2122 101.044C40.5867 102.197 42.1056 102.856 42.1195 102.863L42.7922 103.148L42.0987 103.391C41.6548 103.551 41.419 103.801 41.3704 104.162C41.2525 105.071 42.3414 106.814 45.0601 108.674C48.5487 111.056 49.5058 114.125 49.5405 114.256L49.6931 114.729ZM44.5053 114.638C44.5053 114.472 44.5469 114.298 44.6509 114.145C45.0948 113.458 46.4195 113.382 48.8053 113.916C48.3961 112.972 47.2448 110.848 44.7411 109.133C42.175 107.376 40.6353 105.384 40.8017 104.078C40.8433 103.78 40.982 103.405 41.3843 103.113C40.8225 102.78 39.9625 102.141 39.6574 101.211C39.4354 100.538 39.5464 99.8294 39.9833 99.1143L40.0666 98.9755L42.1056 99.0102C42.3622 98.552 43.0766 96.9621 41.412 95.4833C40.7393 96.2192 39.3869 97.0662 37.9928 96.1151C36.8901 95.3583 36.3283 93.581 36.7514 92.1508C37.0843 91.0122 37.979 90.3248 39.2135 90.2624C40.3648 90.2068 41.2525 90.4637 41.849 91.0122C42.2235 91.3524 42.4108 91.7481 42.5009 92.0466C42.7506 91.8522 43.0835 91.5051 43.2361 90.9844C43.4858 90.1652 43.243 89.1585 42.5217 87.9921C41.953 87.0826 41.2387 86.5411 40.3856 86.3744C38.7835 86.0689 37.2022 87.1937 37.1883 87.2076L37.1259 87.2562L37.0496 87.2631C37.008 87.27 33.3114 87.6033 31.6954 83.9445L31.3694 84.7012C31.2307 85.0345 30.9186 85.2497 30.551 85.2636C30.1834 85.2705 29.8575 85.0761 29.698 84.7429C29.372 84.0556 28.8172 83.2641 28.0542 83.3752C27.6381 83.4376 27.5202 83.632 27.4717 83.7778C27.1734 84.5901 28.1236 86.4439 29.7812 88.2837C32.1878 90.9427 30.2112 93.8656 30.1904 93.9004L29.7326 94.5599L29.6564 93.7684C29.6564 93.7476 29.3997 91.5884 26.466 89.6236C24.2189 88.1171 23.4213 84.6457 24.2675 82.7711C24.6628 81.8894 25.3979 81.4381 26.3134 81.4867L25.5089 79.4733C25.391 79.1818 25.4881 78.8624 25.7517 78.6819C26.0152 78.5014 26.3481 78.5153 26.5909 78.7235L28.942 80.7578C29.1015 80.6397 29.3304 80.4037 29.3928 80.0149C29.483 79.4386 29.2264 78.3972 27.437 76.7101C24.101 73.5651 23.8097 71.4545 24.0317 70.3367C23.6502 70.6144 23.137 71.2879 22.9497 72.9125C22.9289 73.1277 22.8665 73.6276 22.4781 73.6623C22.2215 73.69 21.9094 73.7178 21.0078 71.3017C21.4724 88.6725 30.1557 104.814 44.533 114.972C44.5122 114.86 44.4983 114.749 44.5053 114.638Z" fill="#34AAFC"/>
<path d="M25.0234 65.9424C25.0234 65.9424 28.186 68.1988 30.3152 73.4891C32.4514 78.7795 36.7514 76.9466 36.9109 73.6072C36.9109 73.6072 33.783 74.7944 33.4015 69.0527C33.0201 63.3111 29.8089 58.6733 29.8089 58.6733L26.4244 57.9443C26.4313 57.9374 26.8336 62.6238 25.0234 65.9424Z" fill="#34AAFC"/>
<path d="M37.2231 73.1835L37.2023 73.614C37.1191 75.3566 35.9539 76.8076 34.4212 77.0576C32.6734 77.3422 31.0366 76.0509 30.0449 73.5862C27.9642 68.4278 24.8848 66.1922 24.8502 66.1644L24.6421 66.0186L24.76 65.7965C26.5077 62.5959 26.1332 57.9998 26.1332 57.9581L26.0985 57.5693L29.9755 58.4025L30.0379 58.4997C30.0726 58.5483 33.2976 63.2763 33.6791 69.0248C33.8178 71.1354 34.3657 72.5587 35.2604 73.128C36.0094 73.6071 36.7584 73.3363 36.7931 73.3293L37.2231 73.1835ZM25.3981 65.859C26.1402 66.4491 28.734 68.768 30.5928 73.3779C31.4736 75.5718 32.8745 76.7313 34.331 76.4952C35.4823 76.3078 36.3839 75.2733 36.585 73.9681C36.1897 74.0167 35.5863 74.0028 34.976 73.6209C33.901 72.9405 33.2699 71.4131 33.1173 69.0665C32.7774 63.915 30.0795 59.6036 29.6357 58.9232L26.7436 58.2983C26.799 59.4716 26.8268 63.0541 25.3981 65.859Z" fill="#34AAFC"/>
<path d="M20.7788 64.9771C22.2283 64.255 23.6779 62.8109 24.205 59.9436C25.3909 53.466 28.9558 54.7713 28.9558 54.7713L28.5327 51.3277L26.3203 50.1405C26.3203 50.1405 27.43 47.2037 26.9861 44.1836C23.6293 50.4945 21.4654 57.5206 20.7788 64.9771Z" fill="#34AAFC"/>
<path d="M29.3026 55.2017L28.8587 55.035C28.824 55.0211 27.9432 54.7226 26.9584 55.285C25.7932 55.9515 24.9402 57.5761 24.4963 59.9921C24.0316 62.5193 22.8318 64.2827 20.9176 65.2339L20.4529 65.463L20.5014 64.9493C21.1742 57.6038 23.2756 50.5708 26.7365 44.0516L27.1526 43.2671L27.2844 44.1419C27.6728 46.7385 26.9445 49.2378 26.6879 50.0015L28.8102 51.1402L29.3026 55.2017ZM21.1256 64.4563C22.596 63.5468 23.5323 62.0125 23.9206 59.8949C24.3992 57.2636 25.3285 55.5418 26.681 54.7851C27.4508 54.3477 28.179 54.3477 28.6229 54.4032L28.2692 51.5081L25.9736 50.2723L26.0637 50.0363C26.0706 50.0085 26.9168 47.7382 26.8058 45.1833C23.7126 51.2374 21.8053 57.708 21.1256 64.4563Z" fill="#34AAFC"/>
<path d="M46.4405 53.1537C46.5445 54.0007 47.4461 54.5214 48.2368 54.1882C48.7153 53.9868 49.3048 53.6883 50.0331 53.244C52.5368 51.7096 54.3678 54.7158 54.3678 54.7158C54.3678 54.7158 56.1155 49.4394 52.5853 48.6548C49.4366 47.9606 49.8597 50.7932 47.3213 51.668C46.7318 51.8693 46.3364 52.4247 46.4127 53.0426L46.4405 53.1537Z" fill="#34AAFC"/>
<path d="M55.0959 52.133C55.0682 53.5007 54.6798 54.7157 54.6521 54.799L54.4579 55.3961L54.1319 54.8615C54.125 54.8476 53.2511 53.4521 51.968 53.1536C51.3785 53.0148 50.782 53.1258 50.1995 53.4869C49.5336 53.8965 48.9164 54.2228 48.3615 54.4519C47.9038 54.6463 47.3906 54.6116 46.9536 54.3686C46.5098 54.1186 46.2254 53.6882 46.163 53.1883L46.1491 53.0772C46.059 52.3413 46.5098 51.654 47.2449 51.3971C48.2159 51.0638 48.7222 50.4112 49.2077 49.7864C49.9151 48.8769 50.6433 47.9327 52.6685 48.377C53.5354 48.5714 54.1804 49.0227 54.5966 49.7378C54.9919 50.4459 55.1098 51.3138 55.0959 52.133ZM54.2498 54.0562C54.4717 53.1189 54.7838 51.2374 54.0764 50.0155C53.7435 49.4462 53.2372 49.0852 52.5298 48.9324C50.8722 48.5645 50.3659 49.224 49.6585 50.1266C49.1453 50.7931 48.5627 51.5429 47.4252 51.9317C46.9467 52.0983 46.6554 52.5357 46.7109 53.0009L46.7248 53.112C46.7664 53.4313 46.9467 53.7021 47.2311 53.8618C47.5085 54.0215 47.8344 54.0353 48.1188 53.9173C48.6459 53.6951 49.2354 53.3897 49.8735 52.9939C50.6017 52.5496 51.3438 52.4107 52.0928 52.5912C53.0846 52.8273 53.8337 53.5563 54.2498 54.0562Z" fill="#34AAFC"/>
<path d="M33.1866 59.9572C33.3808 62.0886 36.7029 61.804 36.5365 59.6726C36.5365 59.6448 36.5295 59.624 36.5295 59.5962C36.2868 57.0135 33.679 57.2565 33.249 59.0616C33.1797 59.381 33.1658 59.6795 33.1866 59.9572Z" fill="#34AAFC"/>
<path d="M36.8347 59.8602C36.8138 60.9711 35.933 61.6237 35.0106 61.7C34.0466 61.7764 33.0062 61.2141 32.8953 59.9852C32.8675 59.6589 32.8883 59.3256 32.9646 58.9993C33.2004 58.0065 34.0535 57.34 35.0037 57.4025C35.7874 57.458 36.6751 58.0551 36.8208 59.5756L36.8277 59.6589C36.8347 59.7214 36.8416 59.7908 36.8347 59.8602ZM33.4779 59.9296C33.5611 60.8322 34.2893 61.1793 34.969 61.1238C35.6348 61.0683 36.3145 60.6031 36.2521 59.6936L36.2451 59.6242C36.155 58.6313 35.6764 58.0134 34.969 57.9648C34.4003 57.9232 33.7275 58.312 33.5403 59.1243C33.4709 59.3951 33.4501 59.6728 33.4779 59.9296Z" fill="#34AAFC"/>
<path d="M59.2156 119.158C59.2156 119.158 60.3461 117.103 56.3443 117.103C53.9862 117.103 52.5922 118.311 50.2202 118.825C50.8097 119.144 51.3993 119.45 52.0026 119.748C52.0165 119.741 56.4067 118.033 59.2156 119.158Z" fill="#34AAFC"/>
<path d="M59.6526 118.575C59.6456 118.971 59.4792 119.276 59.4722 119.297L59.3474 119.526L59.1046 119.429C56.4622 118.374 52.287 119.95 52.1067 120.012L51.9888 120.061L51.8709 120.005C51.2675 119.707 50.6711 119.394 50.0815 119.075L49.4019 118.707L50.1578 118.54C51.0941 118.339 51.8848 118.02 52.6477 117.714C53.799 117.249 54.8878 116.812 56.3443 116.812C57.995 116.812 59.0492 117.159 59.4653 117.846C59.6109 118.103 59.6595 118.353 59.6526 118.575ZM59.0422 118.79C59.0838 118.617 59.0977 118.367 58.959 118.138C58.7509 117.797 58.1198 117.388 56.3443 117.388C54.9988 117.388 53.9654 117.804 52.8696 118.249C52.287 118.485 51.6906 118.721 51.0178 118.915C51.3507 119.089 51.6906 119.262 52.0235 119.429C52.7517 119.172 56.4275 117.936 59.0422 118.79Z" fill="#34AAFC"/>
<path d="M62.0867 115.756C62.9467 115.77 63.6403 116.187 63.6333 116.68C63.6264 117.173 62.919 117.561 62.052 117.547C61.192 117.534 60.4985 117.117 60.5054 116.624C60.5193 116.131 61.2267 115.742 62.0867 115.756Z" fill="#34AAFC"/>
<path d="M63.9247 116.686C63.9108 117.353 63.0855 117.853 62.0521 117.839C61.0118 117.818 60.2073 117.284 60.2211 116.624C60.235 115.957 61.0603 115.458 62.0937 115.471C63.134 115.492 63.9386 116.027 63.9247 116.686ZM60.7968 116.631C60.7898 116.923 61.3308 117.249 62.059 117.263C62.7873 117.277 63.3352 116.964 63.3421 116.673C63.349 116.381 62.8081 116.055 62.0798 116.041C61.3516 116.034 60.8037 116.346 60.7968 116.631Z" fill="#34AAFC"/>
<path d="M51.0247 55.3821C51.85 55.396 52.502 55.9861 52.495 56.6943C52.4812 57.4094 51.8015 57.9717 50.9831 57.9578C50.1578 57.944 49.5058 57.3538 49.5128 56.6457C49.5266 55.9375 50.2063 55.3682 51.0247 55.3821Z" fill="#34AAFC"/>
<path d="M52.7862 56.7082C52.7724 57.5761 51.9609 58.2703 50.9761 58.2495C49.9912 58.2356 49.2075 57.5136 49.2214 56.6457C49.2352 55.7779 50.0467 55.0836 51.0315 55.1045C52.0164 55.1183 52.8001 55.8334 52.7862 56.7082ZM49.804 56.6527C49.797 57.2081 50.3241 57.6663 50.983 57.6733C51.6419 57.6872 52.1898 57.2428 52.2036 56.6943C52.2106 56.1389 51.6835 55.6807 51.0246 55.6738C50.3588 55.6599 49.8109 56.0973 49.804 56.6527Z" fill="#34AAFC"/>
<path d="M94.448 78.3626C95.2733 78.3765 95.9252 78.9319 95.9183 79.6053C95.9044 80.2788 95.2317 80.8134 94.4063 80.7995C93.581 80.7856 92.9221 80.2302 92.936 79.5567C92.9429 78.8833 93.6226 78.3487 94.448 78.3626Z" fill="#34AAFC"/>
<path d="M96.2027 79.6125C96.1889 80.4386 95.3774 81.1052 94.3926 81.0843C93.4077 81.0704 92.624 80.3762 92.6379 79.55C92.6517 78.7238 93.4632 78.0573 94.448 78.0781C95.4329 78.092 96.2235 78.7793 96.2027 79.6125ZM93.2274 79.5569C93.2205 80.0707 93.7476 80.4942 94.4134 80.5081C95.0722 80.522 95.6202 80.1123 95.6271 79.5986C95.634 79.0848 95.1069 78.6613 94.4411 78.6474C93.7822 78.6405 93.2343 79.0432 93.2274 79.5569Z" fill="#34AAFC"/>
<path d="M91.3755 80.3136C91.9165 80.3205 92.3465 80.7926 92.3326 81.3688C92.3257 81.9451 91.8749 82.4033 91.3339 82.3894C90.7929 82.3755 90.3629 81.9104 90.3768 81.3341C90.3907 80.7648 90.8345 80.3066 91.3755 80.3136Z" fill="#34AAFC"/>
<path d="M92.6308 81.3758C92.6169 82.1047 92.0343 82.6879 91.3338 82.681C90.6334 82.6671 90.0716 82.0631 90.0855 81.3341C90.0993 80.6051 90.6819 80.0219 91.3824 80.0289C92.0829 80.0428 92.6377 80.6468 92.6308 81.3758ZM90.668 81.341C90.6611 81.7576 90.9663 82.0978 91.3408 82.1047C91.7222 82.1117 92.0343 81.7784 92.0413 81.3619C92.0482 80.9453 91.743 80.6051 91.3685 80.5982C90.994 80.5912 90.675 80.9245 90.668 81.341Z" fill="#34AAFC"/>
<path d="M71.5815 38.2546C72.4346 38.0602 73.4263 37.4632 73.461 35.7136C72.7883 35.1582 71.7618 35.3109 71.318 36.0538C70.9712 36.63 70.4718 37.1299 69.7991 37.0813L69.9655 37.4493C70.2429 38.0602 70.9157 38.4074 71.5815 38.2546Z" fill="#34AAFC"/>
<path d="M73.7524 35.5816V35.7205C73.7177 37.7617 72.4208 38.3587 71.6509 38.5323C70.8603 38.7128 70.0419 38.3032 69.7021 37.5603L69.3345 36.7619L69.82 36.7966C70.2708 36.8244 70.6938 36.5259 71.0683 35.908C71.325 35.4914 71.748 35.1998 72.2405 35.1165C72.7467 35.0332 73.26 35.172 73.6484 35.4914L73.7524 35.5816ZM71.5122 37.9769C72.5456 37.7408 73.1005 37.0327 73.1629 35.8594C72.9201 35.6997 72.6219 35.6372 72.3375 35.6858C72.0116 35.7413 71.7342 35.9288 71.5677 36.1996C71.1238 36.9285 70.6453 37.2271 70.2361 37.3312C70.4511 37.8242 70.9921 38.0949 71.5122 37.9769Z" fill="#34AAFC"/>
<path d="M45.3791 94.7825C46.2322 94.5881 47.224 93.991 47.2586 92.2414C46.5859 91.686 45.5594 91.8388 45.1156 92.5816C44.7688 93.1579 44.2694 93.6577 43.5967 93.6091L43.7631 93.9771C44.0406 94.5881 44.7133 94.9352 45.3791 94.7825Z" fill="#34AAFC"/>
<path d="M47.55 92.1163V92.2552C47.5153 94.2963 46.2184 94.8934 45.4485 95.067C44.6579 95.2475 43.8395 94.8379 43.4997 94.095L43.1321 93.2966L43.6176 93.3313C44.0684 93.3591 44.4914 93.0605 44.866 92.4426C45.1226 92.0261 45.5456 91.7345 46.0381 91.6512C46.5444 91.5678 47.0576 91.7067 47.446 92.0261L47.55 92.1163ZM45.3098 94.5046C46.3432 94.2686 46.8981 93.5604 46.9536 92.3801C46.7108 92.2205 46.4126 92.158 46.1282 92.2066C45.8023 92.2621 45.5248 92.4496 45.3584 92.7273C44.9145 93.4563 44.436 93.7548 44.0268 93.8589C44.2487 94.3519 44.7897 94.6226 45.3098 94.5046Z" fill="#34AAFC"/>
<path d="M126.337 59.9437C126.039 60.1867 126.199 60.6727 126.587 60.6935C127.669 60.756 129.354 61.1101 130.658 62.5264C132.156 64.1579 131.22 65.2618 130.596 65.7478C130.395 65.9075 130.374 66.1921 130.554 66.3796C132.801 68.6429 133.758 74.4332 133.8 74.6831C133.911 73.4126 133.98 72.1282 134.008 70.8299C134.071 67.2335 133.786 63.7066 133.19 60.2908C130.291 57.479 127.62 58.9023 126.337 59.9437Z" fill="#34AAFC"/>
<path d="M134.292 70.8299C134.272 72.0796 134.202 73.3848 134.084 74.7039L133.883 77.0228L133.509 74.7247C133.467 74.4818 132.517 68.7679 130.339 66.5809C130.193 66.4351 130.117 66.2407 130.131 66.0394C130.145 65.8381 130.242 65.6506 130.408 65.5326C130.728 65.2896 131.116 64.88 131.164 64.3384C131.213 63.8385 130.963 63.297 130.436 62.7277C129.229 61.4086 127.662 61.0545 126.566 60.9851C126.268 60.9642 126.011 60.7768 125.921 60.4921C125.831 60.2144 125.921 59.909 126.15 59.7284C127.274 58.8189 130.235 57.0347 133.384 60.0895L133.453 60.152L133.467 60.2422C134.077 63.7205 134.355 67.2891 134.292 70.8299ZM133.647 72.5586C133.675 71.9685 133.696 71.3922 133.71 70.8229C133.772 67.3516 133.502 63.8524 132.912 60.4297C130.221 57.8886 127.759 59.173 126.518 60.1658C126.455 60.2144 126.462 60.2769 126.476 60.3116C126.483 60.3394 126.518 60.4019 126.601 60.4088C127.808 60.4783 129.528 60.874 130.866 62.3389C131.504 63.0332 131.796 63.7344 131.74 64.3801C131.671 65.1299 131.171 65.6645 130.762 65.9769C130.721 66.0116 130.714 66.0533 130.707 66.0741C130.707 66.0949 130.707 66.1435 130.748 66.1782C132.239 67.664 133.162 70.5591 133.647 72.5586Z" fill="#34AAFC"/>
<path d="M29.7949 39.4971C31.1196 38.539 32.7356 37.7545 34.3169 37.9627C34.5943 37.9974 34.7608 37.6711 34.5666 37.4767C34.1088 37.0046 33.3598 36.3867 32.2917 36.0049C31.4178 37.1365 30.5856 38.3029 29.7949 39.4971Z" fill="#34AAFC"/>
<path d="M34.9412 37.685C34.9412 37.7683 34.9204 37.8586 34.8788 37.9419C34.7609 38.164 34.532 38.2821 34.2823 38.2474C33.02 38.0807 31.5636 38.5737 29.9754 39.7262L28.6992 40.6495L29.5592 39.3374C30.3499 38.1363 31.196 36.956 32.0699 35.8243L32.2017 35.6577L32.4028 35.7271C33.5402 36.1368 34.3309 36.7963 34.7886 37.2754C34.8926 37.3934 34.9481 37.5392 34.9412 37.685ZM30.8145 38.5112C32.0837 37.8169 33.2697 37.5392 34.3586 37.685C33.9702 37.2754 33.3183 36.7269 32.3958 36.352C31.8549 37.0532 31.3278 37.7752 30.8145 38.5112Z" fill="#34AAFC"/>
<path d="M75.2158 116.888C75.2158 116.888 78.8015 115.708 81.7144 116.145C81.7144 116.145 81.0971 113.458 77.4005 114.062C77.4005 114.055 78.1495 115.312 75.2158 116.888Z" fill="#34AAFC"/>
<path d="M82.089 116.485L81.6659 116.423C78.8501 116.006 75.3407 117.145 75.306 117.159L75.0771 116.638C77.671 115.25 77.1509 114.215 77.1439 114.201L76.9567 113.847L77.352 113.778C81.2775 113.139 81.9919 116.048 81.9988 116.083L82.089 116.485ZM76.7972 116.173C78.0039 115.909 79.6893 115.652 81.2706 115.798C80.9515 115.159 80.0568 114.028 77.7681 114.291C77.7889 114.444 77.782 114.639 77.7196 114.861C77.5947 115.312 77.2826 115.742 76.7972 116.173Z" fill="#34AAFC"/>
<path d="M65.7973 24.9038C65.7973 24.9038 67.9611 25.9105 66.8376 27.5282C65.714 29.1459 62.385 28.4238 60.228 27.0491C60.228 27.0491 63.2311 25.9522 61.3793 23.7305C59.5345 21.5227 66.2342 21.0298 65.7973 24.9038Z" fill="#33DDEC"/>
<path d="M67.4548 26.6463C67.4479 26.9934 67.323 27.3475 67.0803 27.6946C65.8111 29.5345 62.1908 28.6458 60.0685 27.2919L59.583 26.9795L60.124 26.7782C60.1378 26.7712 61.407 26.2922 61.6498 25.4035C61.7746 24.9522 61.6012 24.4524 61.1504 23.9108C60.554 23.1957 60.769 22.675 60.9493 22.432C61.4764 21.7169 62.9883 21.5156 64.2575 21.9946C65.5059 22.4667 66.1717 23.4387 66.0955 24.737C66.4422 24.9384 67.1774 25.4382 67.3924 26.195C67.4409 26.3477 67.4548 26.4935 67.4548 26.6463ZM60.8453 27.0837C62.9675 28.2639 65.7071 28.6666 66.6017 27.3753C66.8514 27.0142 66.9277 26.681 66.8376 26.3547C66.6711 25.7507 65.9429 25.2924 65.6724 25.1675L65.4851 25.0772L65.5059 24.8759C65.6724 23.3762 64.6667 22.7722 64.0564 22.5362C62.9745 22.1265 61.7538 22.3279 61.4279 22.7722C61.2822 22.9736 61.3377 23.2374 61.6082 23.5568C62.1838 24.251 62.3919 24.9245 62.2185 25.5632C62.0104 26.313 61.3308 26.8129 60.8453 27.0837Z" fill="#33DDEC"/>
<path d="M95.5369 16.9336C95.4883 16.9614 92.4367 18.8845 89.4822 18.5304C86.5068 18.1763 79.6753 17.9958 85.0504 22.4184C85.0504 22.4184 93.2759 17.8847 100.836 18.9956C99.1087 18.2319 97.347 17.5376 95.5369 16.9336Z" fill="#33DDEC"/>
<path d="M102.847 19.5856L100.794 19.2871C93.4215 18.204 85.2722 22.6266 85.1959 22.6752L85.0226 22.7724L84.87 22.6474C83.1569 21.238 82.498 20.148 82.8587 19.3149C83.58 17.6694 88.1435 18.086 89.5237 18.2526C92.3465 18.5928 95.2594 16.7738 95.3842 16.6975L95.5021 16.6211L95.6339 16.6627C97.3955 17.2459 99.1849 17.9472 100.96 18.7386L102.847 19.5856ZM85.085 22.0781C86.2293 21.4879 92.6586 18.3221 99.067 18.5581C97.8949 18.0791 96.7297 17.6417 95.5715 17.2529C94.9542 17.6139 92.18 19.1482 89.4474 18.8219C86.8189 18.5095 83.8019 18.5998 83.3858 19.544C83.254 19.8425 83.3025 20.5785 85.085 22.0781Z" fill="#33DDEC"/>
<path d="M107.681 120.97C106.093 121.907 104.428 122.775 102.729 123.56L102.479 123.039C104.165 122.261 105.808 121.4 107.383 120.477L107.681 120.97Z" fill="white"/>
<path d="M100.364 124.587C88.8648 129.281 78.9609 128.961 78.8638 128.961L78.8846 128.385C78.9817 128.392 88.7677 128.697 100.142 124.06L100.364 124.587Z" fill="white"/>
<path d="M100.343 15.3367L100.066 15.8435C99.9547 15.781 88.74 9.85888 73.2807 11.1363C69.4731 11.4488 65.6932 12.1222 62.0521 13.122L61.8926 12.5735C65.5684 11.5598 69.3829 10.8864 73.2321 10.567C88.8717 9.26874 100.232 15.2742 100.343 15.3367Z" fill="white"/>
<path d="M57.9601 14.4131C51.7181 16.6348 48.1463 19.1411 48.1047 19.1689L47.7649 18.7037C47.7996 18.676 51.4407 16.128 57.759 13.8716L57.9601 14.4131Z" fill="white"/>
<path d="M33.5123 130.905C30.8352 130.905 28.5881 130.239 26.8542 128.836C21.3058 124.344 21.8745 113.437 28.4493 98.1147L29.0111 98.3577C22.6443 113.187 21.9993 124.122 27.2356 128.364C37.6389 136.779 67.7529 117.665 94.3575 85.7497C115.372 60.5476 128.563 34.1305 127.183 20.0228C126.857 16.6903 125.699 14.1979 123.75 12.6219C118.999 8.77559 109.865 10.5946 98.0264 17.7317L97.7143 17.211C109.789 9.92808 119.173 8.12991 124.139 12.1498C126.219 13.8368 127.454 16.4681 127.794 19.9673C129.188 34.2277 115.941 60.8253 94.8291 86.1454C72.365 113.09 47.3209 130.905 33.5123 130.905Z" fill="white"/>
<path d="M108.603 98.3579C97.2774 98.3579 84.412 97.1916 70.9433 94.7338C38.0551 88.7284 10.4934 76.7383 2.358 64.894C0.402186 62.0474 -0.339914 59.3051 0.145572 56.7362C1.42171 49.9462 11.0205 45.1974 27.1733 43.3784L27.2426 43.9894C11.61 45.7528 1.94881 50.4392 0.748962 56.8543C0.298154 59.2565 1.01251 61.8461 2.86429 64.5538C10.9095 76.2731 38.3117 88.166 71.0542 94.1368C112.272 101.663 147.81 97.1777 150.258 84.1392C151.367 78.2448 145.445 71.309 133.592 64.6093L133.89 64.0747C145.992 70.9133 152.019 78.0782 150.854 84.2503C149.155 93.2828 132.225 98.3579 108.603 98.3579Z" fill="white"/>
<path d="M101.14 141C95.1412 141 87.4775 135.779 79.0994 125.879L79.5641 125.483C89.4472 137.168 98.2483 142.25 104.331 139.792C106.689 138.841 108.548 136.772 109.858 133.641C115.344 120.526 110.607 91.4846 98.0819 61.3809C82.1857 23.1611 59.1112 -3.83919 46.662 1.1943C40.6142 3.63814 37.9163 13.712 39.2479 28.8333L38.6376 28.8889C37.2574 13.2538 40.0247 3.21463 46.4331 0.624993C59.1945 -4.52652 82.6226 22.6126 98.6506 61.1309C111.239 91.3735 115.969 120.602 110.427 133.863C109.054 137.154 107.084 139.334 104.567 140.348C103.499 140.785 102.354 141 101.14 141Z" fill="white"/>
<path fill-rule="evenodd" clip-rule="evenodd" d="M99.2748 46.8427C98.9974 46.2804 98.3039 46.2595 97.756 46.565C97.4508 46.7386 96.7226 47.3148 95.3077 47.3981C94.1148 47.4676 93.4767 46.933 92.27 47.0996C91.9579 47.1413 91.4932 47.3634 91.2574 47.5786C90.3627 48.4048 90.3766 49.238 89.5651 50.1197C88.6011 51.168 87.6856 51.3416 87.3666 51.4874C86.7701 51.7721 86.5204 52.3205 86.7979 52.9037C86.7979 52.9037 89.3432 60.0825 96.5006 60.1936C96.6601 60.1936 97.2427 60.1936 97.7282 59.9645L97.7421 59.9575C98.2276 59.7284 98.5952 59.2772 98.6923 59.1522C103.152 53.5425 99.2748 46.8427 99.2748 46.8427Z" fill="white"/>
<path fill-rule="evenodd" clip-rule="evenodd" d="M95.7517 91.6164C95.2108 91.6025 94.9125 92.1232 94.9264 92.6647C94.9333 92.9702 95.079 93.7547 94.5727 94.8656C94.1427 95.8029 93.4769 96.0736 93.1232 97.0595C93.033 97.3164 93.0122 97.7607 93.0816 98.0245C93.3451 99.0382 93.9901 99.3645 94.33 100.343C94.7391 101.503 94.4964 102.267 94.4825 102.572C94.4548 103.141 94.7738 103.551 95.3356 103.579C95.3356 103.579 101.827 104.537 104.803 99.1215C104.865 99.0035 105.101 98.5591 105.122 98.094V98.087C105.142 97.6218 104.948 97.1567 104.893 97.0317C102.417 91.3664 95.7517 91.6164 95.7517 91.6164Z" fill="white"/>
<path fill-rule="evenodd" clip-rule="evenodd" d="M53.7294 129.614C54.201 129.357 54.201 128.76 53.9236 128.295C53.771 128.038 53.2508 127.427 53.1329 126.205C53.0358 125.177 53.4797 124.615 53.2994 123.581C53.2508 123.31 53.0497 122.914 52.8555 122.72C52.1204 121.97 51.3991 122.011 50.6223 121.331C49.6929 120.533 49.5195 119.748 49.3808 119.477C49.1242 118.971 48.6387 118.776 48.1463 119.033C48.1463 119.033 42.0361 121.435 42.154 127.614C42.154 127.753 42.1748 128.253 42.3898 128.663L42.3968 128.67C42.6118 129.079 43.0071 129.385 43.1181 129.468C48.077 133.155 53.7294 129.614 53.7294 129.614Z" fill="white"/>
<path fill-rule="evenodd" clip-rule="evenodd" d="M15.8823 69.9063C15.5217 69.6842 15.1055 69.9202 14.8975 70.2951C14.7796 70.5034 14.5715 71.1074 13.7739 71.6698C13.1081 72.1419 12.5394 72.0586 11.9013 72.5932C11.7349 72.732 11.5476 73.0306 11.4852 73.2389C11.2633 74.0442 11.5754 74.5233 11.4158 75.3286C11.2355 76.2867 10.7639 76.7172 10.6321 76.9185C10.3894 77.3004 10.4449 77.71 10.8125 77.946C10.8125 77.946 14.8905 81.2022 19.0935 78.675C19.1836 78.6195 19.5235 78.4043 19.7246 78.0988L19.7315 78.0918C19.9327 77.7794 19.9812 77.3837 19.9951 77.2795C20.5568 72.3988 15.8823 69.9063 15.8823 69.9063Z" fill="white"/>
<path fill-rule="evenodd" clip-rule="evenodd" d="M15.4037 48.6058C15.6187 48.5295 15.6603 48.2795 15.5702 48.0643C15.5216 47.9463 15.3413 47.6616 15.376 47.1409C15.4037 46.7035 15.6257 46.4953 15.6118 46.0509C15.6118 45.9329 15.5494 45.7593 15.48 45.6621C15.2234 45.3011 14.9182 45.2733 14.6339 44.9401C14.294 44.5443 14.2732 44.2041 14.2316 44.0861C14.1553 43.857 13.9681 43.7459 13.7461 43.8223C13.7461 43.8223 11.0413 44.4333 10.6945 47.0229C10.6876 47.0784 10.6598 47.2937 10.7223 47.4742V47.4811C10.7847 47.6686 10.9303 47.8213 10.9719 47.863C12.8098 49.7236 15.4037 48.6058 15.4037 48.6058Z" fill="white"/>
<path fill-rule="evenodd" clip-rule="evenodd" d="M142.67 68.0876C142.546 67.9973 142.393 68.0737 142.303 68.2056C142.254 68.282 142.164 68.4903 141.866 68.6708C141.609 68.8235 141.408 68.7819 141.165 68.9554C141.103 69.004 141.027 69.1012 140.999 69.1776C140.902 69.4622 140.999 69.6428 140.923 69.9274C140.833 70.2676 140.652 70.4134 140.597 70.4828C140.5 70.6147 140.507 70.7605 140.638 70.8577C140.638 70.8577 142.025 72.1352 143.607 71.3298C143.641 71.309 143.766 71.2465 143.85 71.1354C143.926 71.0313 143.96 70.8855 143.967 70.8508C144.293 69.1012 142.67 68.0876 142.67 68.0876Z" fill="white"/>
<path fill-rule="evenodd" clip-rule="evenodd" d="M130.956 35.9009C131.13 35.3941 130.728 34.9567 130.214 34.8109C129.923 34.7276 129.139 34.6373 128.238 33.825C127.475 33.1446 127.426 32.4295 126.594 31.8047C126.379 31.6381 125.963 31.4923 125.692 31.4784C124.652 31.4298 124.16 31.9366 123.14 31.9713C121.926 32.013 121.274 31.5617 120.99 31.4576C120.463 31.2632 119.978 31.4437 119.79 31.9644C119.79 31.9644 116.961 37.824 121.198 42.2396C121.288 42.3368 121.642 42.6909 122.072 42.8506H122.079C122.509 43.0033 123.008 42.9617 123.14 42.9478C129.223 42.2813 130.956 35.9009 130.956 35.9009Z" fill="white"/>
<path fill-rule="evenodd" clip-rule="evenodd" d="M120.983 8.61574C120.775 8.53242 120.581 8.69211 120.505 8.90733C120.463 9.02536 120.407 9.35861 120.047 9.72658C119.742 10.039 119.443 10.0459 119.159 10.3861C119.083 10.4764 119.013 10.643 119.007 10.761C118.965 11.1984 119.173 11.4206 119.166 11.8511C119.159 12.3648 118.958 12.6356 118.909 12.7536C118.819 12.9758 118.882 13.1841 119.104 13.2743C119.104 13.2743 121.524 14.5865 123.473 12.8786C123.515 12.8439 123.674 12.6981 123.75 12.5176V12.5106C123.827 12.3301 123.813 12.1218 123.813 12.0663C123.646 9.46969 120.983 8.61574 120.983 8.61574Z" fill="white"/>
<path fill-rule="evenodd" clip-rule="evenodd" d="M60.88 0.103956C60.5957 -0.118211 60.235 0.0414718 60.027 0.340009C59.909 0.506635 59.6802 0.985684 58.9728 1.38142C58.3763 1.71467 57.9116 1.59664 57.329 1.98544C57.1765 2.08264 56.9892 2.31175 56.9268 2.47837C56.6702 3.13099 56.8852 3.5545 56.684 4.21406C56.4482 4.99164 56.0182 5.31101 55.8934 5.47069C55.6576 5.76229 55.6645 6.10942 55.9558 6.34548C55.9558 6.34548 59.056 9.42111 62.7803 7.69237C62.8636 7.65765 63.1618 7.51185 63.356 7.26886L63.3629 7.26192C63.5571 7.01892 63.6334 6.69955 63.6542 6.6093C64.5489 2.5964 60.88 0.103956 60.88 0.103956Z" fill="white"/>
<path fill-rule="evenodd" clip-rule="evenodd" d="M116.142 123.435C116.177 123.081 115.851 122.851 115.49 122.838C115.289 122.824 114.762 122.886 114.047 122.497C113.444 122.171 113.298 121.713 112.66 121.428C112.494 121.352 112.203 121.317 112.022 121.352C111.336 121.484 111.093 121.886 110.427 122.067C109.643 122.282 109.144 122.088 108.943 122.06C108.568 122.018 108.277 122.206 108.235 122.574C108.235 122.574 107.292 126.837 110.732 129.072C110.809 129.121 111.093 129.301 111.398 129.336H111.405C111.71 129.371 112.029 129.267 112.112 129.232C115.989 127.871 116.142 123.435 116.142 123.435Z" fill="white"/>
</g>
<defs>
<clipPath id="clip0_1_54">
<rect width="151" height="141" fill="white"/>
</clipPath>
</defs>
</svg>
